<svg width="34" height="32" viewBox="0 0 34 32" fill="none" xmlns="http://www.w3.org/2000/svg">
<path d="M4.44814 23.1544L7.71376 22.0916L7.06658 19.3366L1.24783 16.3084C1.08158 16.2194 0.903451 16.3975 0.992513 16.5637L4.14533 22.6675C4.23439 22.8397 4.33533 23 4.44814 23.1603V23.1544Z" fill="#FDFBEA"/>
<path d="M17.6295 26.996L19.3157 21.2544L17.6176 15.4653H10.3145C9.94043 15.4713 9.59012 15.6553 9.37637 15.9641L7.06668 19.3306L4.44824 23.1485C4.56699 23.3147 4.69762 23.4691 4.84012 23.6175L12.2857 31.1344C12.5232 31.3719 12.9032 31.3778 13.1467 31.1522L17.6295 26.99V26.996Z" fill="#FFBB5F"/>
<path d="M28.1567 25.9449C28.2102 25.7846 28.2339 25.6124 28.2399 25.4462V13.203L22.8902 10.7983L17.6177 13.209L19.7492 19.568L28.1627 25.939L28.1567 25.9449Z" fill="#FFFCEB"/>
<path d="M17.6178 13.2148V15.4652L17.6296 26.9898L23.3653 24.983L24.3865 21.3908L17.6118 13.2148H17.6178Z" fill="#FFBB5F"/>
<path d="M17.6177 13.2148L23.7571 23.6292L24.3924 21.3908L17.6177 13.2148Z" fill="#FFBB5F"/>
<path d="M32.7164 6.4643L31.1786 3.8518L27.3667 2.98492L25.2945 1.63711C24.968 1.42336 24.582 1.31055 24.1902 1.31055H20.598C20.218 1.31055 19.8617 1.48273 19.6242 1.77961L17.4927 4.40992C17.368 4.5643 17.2552 4.73055 17.1602 4.90867L20.4911 10.8165L28.2455 13.2093L32.4552 7.01055C32.568 6.8443 32.657 6.66023 32.7223 6.47023L32.7164 6.4643Z" fill="#FFBB5F"/>
<path d="M30.8997 0.681001C30.6919 0.633501 30.4781 0.704751 30.3416 0.865064L28.5781 2.90756L31.6181 3.75069L32.9303 2.64631C32.865 2.486 32.7641 2.3435 32.6394 2.22475L31.1669 0.829438C31.0897 0.758188 31.0006 0.710688 30.8997 0.686938V0.681001Z" fill="#FFD3BB"/>
<path d="M32.9301 2.64062L28.5839 2.90781L27.3667 2.985L32.7223 6.46437C32.7817 6.28625 32.8233 6.10219 32.8351 5.91219L33.0311 3.23437C33.0429 3.0325 33.0133 2.83063 32.9301 2.64656V2.64062Z" fill="#FFD3BB"/>
<path d="M28.2397 13.2035L17.1544 4.90283C17.0594 5.07502 16.9763 5.25314 16.911 5.43721L14.346 12.6572C14.251 12.9303 14.4529 13.2213 14.7438 13.2213H17.6057L28.2338 13.2094L28.2397 13.2035Z" fill="#FFBB5F"/>
<path d="M24.3922 21.397L17.6294 26.9961L23.5491 31.2177C23.8222 31.4136 24.1963 31.3542 24.3981 31.0871L27.8775 26.5152C28.0022 26.343 28.1031 26.1471 28.1566 25.9392L24.3863 21.3911L24.3922 21.397Z" fill="#FFFCEB"/>
<path d="M32.9302 2.64029L29.4627 1.88623L28.584 2.90748L32.9302 2.64029Z" fill="#FFD3BB"/>
<path d="M32.7165 6.464L29.439 2.854L27.3608 2.97869L32.7165 6.45807V6.464Z" fill="#FFD3BB"/>
<path d="M4.44824 23.1544L5.68324 18.6182L7.06668 19.3366L4.44824 23.1544Z" fill="#FFBB5F"/>
<path d="M24.3923 21.397L23.0801 22.4835L26.5179 28.3142L27.8835 26.521C28.0082 26.3488 28.1091 26.1529 28.1626 25.9451L24.3923 21.397Z" fill="#FFD3BB"/>
<path d="M8.88937 15.6317L6.87656 18.5648L1.52094 15.7742C1.135 15.5782 0.665938 15.7267 0.464063 16.1067C0.345313 16.3323 0.345313 16.6054 0.464063 16.8311L3.61687 22.9348C3.82469 23.3386 4.09781 23.7126 4.41844 24.0392L11.8641 31.5561C12.3272 32.0251 13.0694 32.037 13.5503 31.5917L17.6769 27.762L23.2047 31.6986C23.4184 31.8529 23.6678 31.9242 23.9112 31.9242C24.2734 31.9242 24.6356 31.7579 24.8731 31.4432L28.3466 26.8773C28.6613 26.4676 28.8334 25.957 28.8334 25.4404V13.3873L32.9422 7.33699C33.2212 6.9273 33.3875 6.44636 33.4231 5.95355L33.6191 3.27574C33.6606 2.71761 33.4528 2.1773 33.0431 1.79136L31.5766 0.401989C31.4281 0.253552 31.2381 0.152614 31.0303 0.105114C30.6088 0.0101145 30.1753 0.152615 29.8963 0.479177L28.2991 2.33168L27.5272 2.37918L25.6213 1.13824C25.1938 0.865114 24.7009 0.716677 24.1962 0.716677H20.6041C20.0459 0.716677 19.5175 0.966052 19.1672 1.39949L17.0356 4.0298C16.7447 4.39199 16.5131 4.79574 16.3588 5.23511L13.7937 12.4551C13.7047 12.7104 13.7166 12.9895 13.8353 13.2329C13.9541 13.4764 14.1559 13.6604 14.4112 13.7554C14.5181 13.797 14.6369 13.8148 14.7497 13.8148H17.0178V14.8776H10.3084C9.73844 14.8836 9.20406 15.1626 8.88344 15.6376L8.88937 15.6317ZM2.10875 17.4189L6.20562 19.5504L4.50156 22.0382L2.11469 17.4189H2.10875ZM18.2172 14.8598L23.5609 21.3139L18.2291 25.7314L18.2172 15.4654V14.8598ZM27.6519 24.3895L18.8822 13.8029H27.6519V24.3895ZM23.8994 30.7248L18.6091 26.9545L24.3209 22.2282L27.4619 26.0164C27.4381 26.0579 27.4441 26.1173 27.4144 26.1529L23.9053 30.7248H23.8994ZM32.4316 3.2698L32.2713 5.46668L29.1956 3.46574L32.4316 3.2698ZM31.6716 2.12386L29.9497 2.23074L30.775 1.2748L31.6716 2.12386ZM20.0875 2.14761C20.2122 1.99324 20.4022 1.90418 20.6041 1.90418H24.1962C24.4753 1.90418 24.7425 1.98136 24.9741 2.13574L31.9625 6.67793L28.1031 12.3601L17.9678 4.77199L20.0875 2.15355V2.14761ZM14.9931 12.6332L17.4097 5.82886L26.4644 12.6095L14.9931 12.6273V12.6332ZM17.0297 16.0651L17.0416 26.7407L12.7131 30.7248L5.2675 23.2079C5.2675 23.2079 5.22594 23.1426 5.20219 23.1189L9.86906 16.3086C9.97 16.1601 10.1362 16.0711 10.3144 16.0711H17.0238L17.0297 16.0651Z" fill="#63261D"/>
</svg>
